<?xml version="1.0" standalone="no"?>
<!DOCTYPE svg PUBLIC "-//W3C//DTD SVG 20010904//EN"
 "http://www.w3.org/TR/2001/REC-SVG-20010904/DTD/svg10.dtd">
<svg version="1.0" xmlns="http://www.w3.org/2000/svg"
 width="1392.000000pt" height="392.000000pt" viewBox="0 0 1392.000000 392.000000"
 preserveAspectRatio="xMidYMid meet">
<g transform="translate(0.000000,392.000000) scale(0.100000,-0.100000)"
fill="#ffffff" stroke="none">
<path d="M8388 3908 c-7 -19 2 -38 17 -38 12 0 25 21 25 41 0 14 -37 11 -42
-3z"/>
<path d="M8865 3910 c-8 -14 3 -30 21 -30 8 0 14 9 14 20 0 21 -24 28 -35 10z"/>
<path d="M8593 3636 c-22 -11 -58 -35 -80 -51 -21 -17 -58 -44 -83 -60 -25
-16 -65 -46 -90 -66 -25 -19 -53 -39 -62 -42 -10 -4 -18 -10 -18 -16 0 -5 -8
-11 -17 -15 -10 -3 -38 -21 -63 -41 -25 -19 -52 -38 -60 -42 -8 -4 -19 -12
-25 -18 -8 -9 -123 -89 -203 -140 -8 -5 -22 -16 -31 -23 -51 -42 -177 -132
-250 -177 -8 -5 -20 -15 -26 -21 -5 -6 -41 -32 -80 -58 -38 -26 -90 -63 -115
-82 -25 -19 -53 -37 -62 -40 -10 -4 -18 -10 -18 -15 0 -5 -10 -14 -22 -19 -13
-6 -43 -26 -68 -45 -59 -45 -147 -107 -172 -122 -12 -6 -23 -15 -27 -20 -3 -4
-26 -21 -51 -38 -25 -16 -49 -34 -55 -39 -5 -6 -32 -27 -60 -45 -27 -19 -52
-38 -55 -41 -3 -3 -39 -27 -80 -55 -41 -27 -79 -54 -85 -60 -5 -6 -35 -27 -65
-48 -129 -88 -215 -149 -220 -156 -3 -4 -30 -23 -60 -44 -30 -20 -89 -62 -130
-92 -41 -30 -97 -71 -125 -90 -27 -20 -70 -52 -95 -71 -25 -19 -53 -37 -62
-40 -10 -4 -18 -10 -18 -14 0 -7 -34 -31 -93 -67 -11 -6 -22 -15 -26 -20 -3
-4 -37 -30 -76 -56 -38 -27 -90 -63 -115 -82 -25 -19 -76 -55 -115 -81 -38
-26 -74 -52 -80 -58 -5 -6 -30 -24 -55 -41 -25 -16 -67 -47 -95 -68 -27 -21
-59 -44 -70 -52 -11 -9 -34 -26 -51 -40 -18 -14 -36 -25 -42 -25 -5 0 -12 -7
-16 -15 -3 -8 -10 -15 -17 -15 -6 0 -25 -11 -43 -25 -17 -14 -40 -32 -51 -40
-11 -8 -46 -34 -77 -57 -32 -24 -82 -61 -113 -83 -30 -22 -91 -67 -135 -100
-44 -33 -105 -79 -137 -103 -32 -23 -67 -49 -78 -57 -11 -9 -47 -36 -80 -60
-33 -25 -69 -52 -80 -60 -90 -68 -161 -119 -231 -167 -39 -26 -45 -34 -42 -62
3 -27 7 -31 37 -34 25 -3 37 2 48 17 8 12 20 21 27 21 8 0 19 7 26 15 10 12
59 39 189 103 14 7 33 17 41 22 8 5 47 25 85 45 39 20 106 56 150 80 44 24
112 60 150 80 39 20 88 47 110 61 22 13 51 28 65 34 32 14 37 16 85 45 22 13
54 31 70 40 17 8 48 26 70 39 22 13 59 34 82 46 23 12 59 33 80 47 20 14 46
29 57 34 12 5 39 20 61 34 22 13 54 31 70 40 17 8 48 27 70 40 22 14 54 32 70
41 17 8 48 26 70 39 22 14 51 30 65 37 14 7 45 26 70 43 25 17 56 36 70 43 41
21 82 46 130 77 45 29 78 49 135 79 17 9 48 28 70 41 22 14 54 31 71 39 17 8
36 22 44 30 7 9 18 16 24 16 6 0 36 16 66 36 30 20 64 40 75 45 21 10 30 15
115 69 53 34 82 51 145 84 17 9 46 27 66 39 20 12 66 40 103 62 37 22 84 50
104 62 20 13 48 29 62 36 14 7 45 26 70 42 47 31 89 55 130 77 14 7 47 27 73
46 26 18 58 37 70 43 12 6 40 21 62 34 22 14 51 30 65 37 14 7 50 30 80 50 30
21 61 38 68 38 7 0 21 5 31 12 24 15 100 -7 109 -31 3 -9 12 -24 20 -33 20
-24 2 -113 -43 -213 -7 -16 -16 -48 -20 -70 -4 -21 -12 -51 -20 -65 -7 -14
-16 -47 -20 -75 -4 -27 -13 -57 -20 -65 -7 -8 -16 -33 -20 -55 -4 -21 -13 -52
-21 -67 -30 -58 2 -122 77 -158 47 -22 47 -22 115 0 77 26 136 64 314 202 69
54 136 106 149 115 13 10 32 26 42 36 11 9 22 17 25 17 3 0 20 11 38 25 17 14
41 34 53 43 23 17 65 51 93 75 8 7 26 20 40 29 14 9 40 29 58 44 18 16 44 38
58 49 14 11 37 29 50 41 13 11 42 27 65 34 51 17 88 1 100 -45 9 -33 -14 -129
-37 -156 -8 -8 -14 -22 -14 -30 0 -8 -9 -32 -20 -54 -11 -21 -23 -55 -26 -74
-4 -20 -12 -43 -19 -51 -7 -8 -16 -28 -19 -45 -4 -16 -13 -37 -20 -45 -7 -8
-23 -53 -35 -100 -22 -85 -22 -85 -3 -130 45 -105 150 -155 232 -111 19 10 45
21 58 25 22 7 262 163 272 177 6 8 77 59 160 116 62 43 64 44 106 78 18 14 36
25 41 25 6 0 18 9 28 20 10 11 24 20 31 20 7 0 20 7 29 16 21 22 84 64 94 64
4 0 16 9 26 20 10 11 24 20 31 20 13 0 74 59 74 72 0 15 -33 38 -53 38 -12 -1
-38 -10 -57 -20 -19 -11 -51 -26 -70 -35 -19 -8 -42 -20 -50 -25 -8 -5 -62
-32 -120 -60 -58 -28 -112 -55 -120 -60 -8 -5 -56 -30 -106 -56 -106 -54 -136
-54 -158 -2 -16 37 2 126 29 140 8 5 15 17 15 27 0 10 9 30 20 44 11 14 20 32
20 40 0 8 8 25 19 38 10 13 22 38 25 56 4 17 13 37 21 43 8 6 17 24 20 40 3
16 12 34 20 40 8 6 17 24 20 40 3 16 12 34 20 40 8 6 17 24 20 40 3 16 12 34
20 40 8 6 17 24 20 40 3 16 12 34 20 40 8 6 17 24 20 40 3 16 12 34 20 40 7 6
16 27 20 46 3 19 12 37 20 40 7 3 16 20 19 39 4 18 13 38 21 45 7 6 17 24 20
40 3 16 12 34 20 40 8 6 17 24 20 40 3 16 12 34 20 40 8 6 17 25 20 41 4 16
14 33 23 38 12 7 17 28 20 83 4 72 3 75 -29 111 -59 67 -144 93 -197 60 -79
-48 -222 -146 -233 -159 -6 -8 -18 -14 -25 -14 -8 0 -22 -8 -32 -17 -10 -10
-26 -22 -34 -28 -112 -71 -378 -255 -402 -277 -17 -16 -43 -36 -58 -44 -16 -8
-28 -19 -28 -24 0 -5 -10 -12 -22 -16 -13 -4 -34 -15 -47 -25 -78 -61 -184 53
-122 132 10 13 22 38 25 56 4 17 13 37 21 43 7 6 16 29 20 50 4 21 13 44 21
51 8 6 14 21 14 33 0 12 9 38 20 59 11 20 20 43 20 49 0 7 11 36 25 63 13 28
25 58 25 67 0 9 4 20 10 23 5 3 14 25 21 48 6 23 18 50 27 61 22 23 23 105 2
130 -37 44 -83 86 -95 86 -7 0 -18 7 -25 15 -16 20 -46 17 -97 -9z m-145 -412
c19 -6 22 -11 17 -36 -4 -18 -2 -35 6 -45 11 -13 10 -18 -9 -33 -12 -10 -22
-27 -22 -37 0 -10 -13 -30 -30 -45 -35 -31 -37 -42 -10 -65 11 -10 20 -25 20
-35 0 -9 -9 -20 -20 -23 -11 -3 -20 -12 -20 -20 0 -7 9 -15 20 -18 22 -6 27
-32 8 -43 -6 -4 -19 2 -29 14 -10 14 -23 20 -33 16 -24 -9 -19 -43 7 -55 41
-19 62 -82 47 -144 -12 -52 -12 -52 40 -103 29 -29 62 -52 72 -52 11 0 36 -16
54 -34 30 -30 43 -35 87 -38 58 -3 73 -26 26 -39 -31 -8 -89 -49 -89 -62 0 -6
8 -16 18 -23 16 -13 16 -14 -5 -20 -13 -4 -23 -14 -23 -24 0 -24 -26 -33 -44
-14 -12 11 -25 13 -63 6 -48 -9 -48 -9 -15 -18 18 -5 34 -14 34 -19 1 -19 -47
-36 -89 -32 -37 4 -42 2 -45 -17 -2 -11 -14 -26 -27 -32 -13 -7 -48 -36 -78
-66 -39 -38 -60 -52 -77 -50 -18 2 -26 -5 -38 -38 -15 -37 -19 -40 -56 -40
-32 0 -41 -4 -45 -21 -4 -15 -12 -20 -29 -17 -31 4 -33 52 -2 56 19 3 21 10
23 85 1 52 7 90 16 104 10 15 15 49 15 102 0 77 -1 80 -35 114 -22 22 -35 45
-35 60 0 33 -37 48 -56 22 -16 -21 -58 -16 -62 8 -3 13 4 17 31 17 29 0 34 3
30 18 -3 14 -12 17 -33 14 -21 -3 -31 1 -39 17 -7 12 -18 21 -27 21 -8 0 -17
7 -20 15 -3 8 -22 19 -42 25 -32 9 -39 8 -51 -10 -7 -11 -19 -20 -27 -20 -7 0
-18 -9 -24 -20 -11 -20 -35 -25 -64 -14 -25 9 -19 24 14 35 17 6 30 15 30 21
0 15 -63 -2 -83 -23 -10 -11 -26 -19 -37 -19 -29 0 -87 -42 -101 -72 -13 -31
-43 -37 -53 -12 -13 35 -19 124 -7 124 6 0 11 -11 11 -24 0 -35 21 -44 38 -18
8 12 21 22 28 22 8 0 26 14 41 30 14 17 34 30 43 30 10 0 20 9 23 20 3 11 13
23 24 26 10 4 30 20 46 36 18 20 33 27 46 23 13 -4 29 5 54 30 19 19 44 35 54
35 11 0 38 18 61 40 22 22 49 40 60 40 25 0 80 53 84 82 4 29 35 36 53 11 11
-15 16 -16 27 -5 11 11 10 16 -6 27 -28 21 -13 44 34 51 24 4 40 12 40 20 0 8
-4 14 -10 14 -16 0 -11 27 6 34 25 10 59 7 71 -5 21 -21 43 -2 43 36 0 34 1
35 40 35 27 0 42 -6 49 -17 10 -17 10 -17 11 2 0 20 57 85 74 85 6 0 21 -3 34
-6z m1030 -296 c4 -20 -30 -40 -52 -32 -19 7 -21 25 -4 42 17 17 52 11 56 -10z
m-89 -32 c6 -7 9 -21 5 -30 -4 -10 2 -19 20 -27 35 -16 33 -32 -13 -78 -42
-42 -64 -112 -42 -134 23 -23 13 -40 -20 -33 -27 5 -32 2 -45 -27 -8 -17 -19
-39 -24 -47 -5 -8 -23 -45 -39 -82 -17 -36 -42 -75 -56 -86 -14 -11 -25 -27
-25 -36 0 -30 -27 -16 -83 44 -40 42 -65 60 -82 60 -14 0 -30 9 -37 20 -10 16
-24 20 -64 20 -35 0 -54 5 -57 14 -7 18 54 76 81 76 31 0 74 47 66 72 -5 17
-3 20 12 15 62 -19 64 -19 64 -4 0 8 -7 17 -15 21 -26 9 -18 45 11 52 15 4 35
15 45 25 23 23 42 24 59 4 11 -13 15 -12 36 8 21 20 22 23 8 34 -19 14 -12 40
12 50 10 4 22 0 29 -10 18 -25 28 -21 21 8 -5 21 -3 25 18 25 13 0 29 -7 36
-15 7 -8 16 -15 21 -15 15 0 10 30 -6 36 -22 9 -18 33 8 44 32 13 43 12 56 -4z
m-1843 -397 c6 -10 -52 -79 -67 -79 -14 0 -18 30 -6 42 7 7 16 21 20 31 7 19
42 23 53 6z m-236 -39 c25 -16 -1 -45 -41 -45 -27 0 -35 4 -37 22 -3 17 3 22
25 26 15 2 30 5 33 5 3 1 12 -3 20 -8z m1475 -10 c0 -22 -39 -19 -43 3 -3 15
1 18 20 15 12 -2 23 -10 23 -18z m-1425 -80 c0 -12 -37 -23 -50 -15 -14 9 -13
32 3 38 15 5 47 -10 47 -23z m-92 -11 c4 -34 -22 -57 -43 -39 -18 15 -19 42
-3 58 19 19 43 10 46 -19z m-73 -29 c0 -8 -10 -19 -21 -25 -12 -6 -28 -16 -35
-22 -21 -17 -99 -15 -99 3 0 9 11 14 35 14 25 0 41 7 57 25 24 28 63 31 63 5z
m-87 -118 c4 -28 -24 -40 -45 -19 -14 13 -14 19 -3 32 18 22 44 15 48 -13z
m1312 -82 c0 -13 -7 -20 -20 -20 -13 0 -20 7 -20 20 0 13 7 20 20 20 13 0 20
-7 20 -20z m-1750 -129 c0 -33 -11 -51 -31 -51 -19 0 -28 47 -12 63 14 15 43
7 43 -12z m1278 -104 c2 -19 -1 -27 -12 -27 -20 0 -29 16 -21 41 9 27 29 19
33 -14z m157 -2 c0 -22 -31 -33 -48 -16 -7 7 -6 15 3 26 17 21 45 15 45 -10z
m1003 -213 c3 -20 0 -23 -20 -20 -15 2 -24 11 -26 26 -3 20 0 23 20 20 15 -2
24 -11 26 -26z m-83 -32 c0 -8 -8 -16 -17 -18 -13 -2 -18 3 -18 18 0 15 5 20
18 18 9 -2 17 -10 17 -18z"/>
<path d="M8350 2721 c-15 -29 -12 -41 9 -41 20 0 37 32 26 50 -10 16 -23 12
-35 -9z"/>
<path d="M10132 2214 c5 -25 35 -41 49 -27 9 9 9 16 -1 28 -17 21 -52 20 -48
-1z"/>
<path d="M10196 2153 c-12 -12 -6 -43 9 -43 8 0 15 9 15 19 0 21 -13 34 -24
24z"/>
<path d="M8192 1403 c2 -10 10 -18 18 -18 22 0 18 29 -3 33 -14 3 -18 -1 -15
-15z"/>
<path d="M3917 603 c-4 -3 -7 -17 -7 -30 0 -33 24 -24 28 10 3 26 -7 35 -21
20z"/>
<path d="M3864 169 c-8 -14 11 -33 25 -25 16 10 13 36 -3 36 -8 0 -18 -5 -22
-11z"/>
</g>
</svg>
